<svg preserveAspectRatio="xMidYMid meet" width="100%" height="100%" overflow="visible" style="display: block;" viewBox="0 0 94 34" fill="none" xmlns="http://www.w3.org/2000/svg">
<g id="Vector">
<path d="M37.7162 0L33.6695 8.46643C33.2898 9.26092 32.515 9.76255 31.6676 9.76255H14.1461L7.25277 29.0755L14.1461 23.7368H33.05L25.6602 33.1447C25.2348 33.6863 24.6008 34 23.9318 34H10.8963C10.0313 34 9.24367 33.4776 8.87298 32.6579L7.25277 29.0755L1.00498 24.7456C0.149146 24.1524 -0.21299 23.0253 0.126059 22.0099L3.69056 11.3349C4.00503 10.3931 4.8526 9.76255 5.80405 9.76255H14.1461L19.2704 1.10946C19.679 0.419568 20.3984 0 21.1727 0H37.7162Z" fill="var(--fill-0, #00295D)"/>
<path d="M15.9728 16.8992C15.9728 15.8644 16.3426 15.1112 17.0821 14.6395C17.8216 14.1678 18.9743 13.9319 20.5404 13.9319C22.1064 13.9319 23.2591 14.1678 23.9986 14.6395C24.7381 15.1112 25.1079 15.8644 25.1079 16.8992C25.1079 17.9263 24.7381 18.6796 23.9986 19.1589C23.2591 19.6306 22.1064 19.8665 20.5404 19.8665C18.9743 19.8665 17.8216 19.6306 17.0821 19.1589C16.3426 18.6796 15.9728 17.9263 15.9728 16.8992ZM16.9081 16.8992C16.9081 17.4013 17.0241 17.8122 17.2561 18.1317C17.4953 18.4437 17.8796 18.6719 18.4088 18.8165C18.9453 18.9535 19.6558 19.0219 20.5404 19.0219C21.4249 19.0219 22.1317 18.9535 22.661 18.8165C23.1975 18.6719 23.5818 18.4437 23.8138 18.1317C24.053 17.8122 24.1726 17.4013 24.1726 16.8992C24.1726 16.397 24.053 15.99 23.8138 15.678C23.5818 15.3661 23.1975 15.1378 22.661 14.9933C22.1317 14.8411 21.4249 14.765 20.5404 14.765C19.6558 14.765 18.9453 14.8411 18.4088 14.9933C17.8796 15.1378 17.4953 15.3661 17.2561 15.678C17.0241 15.99 16.9081 16.397 16.9081 16.8992Z" fill="var(--fill-0, #00295D)"/>
<path d="M34.5812 16.6824V19.7409H33.6568V16.7622C33.6568 16.3438 33.5735 15.9862 33.4067 15.6895C33.2472 15.3927 32.9862 15.1645 32.6237 15.0047C32.2612 14.8449 31.7791 14.765 31.1773 14.765C30.5901 14.765 29.9122 14.8639 29.1437 15.0618C28.3824 15.252 27.5922 15.5221 26.7729 15.8721V15.233C27.0991 15.0656 27.4435 14.9058 27.806 14.7536C28.1685 14.5938 28.5492 14.4531 28.9479 14.3314C29.3467 14.2096 29.7563 14.1145 30.1768 14.046C30.5973 13.97 31.0287 13.9319 31.4709 13.9319C32.1162 13.9319 32.6708 14.027 33.1348 14.2172C33.6061 14.3998 33.965 14.6928 34.2115 15.096C34.458 15.4916 34.5812 16.0204 34.5812 16.6824ZM26.5663 19.7409V14.0575H27.371L27.5015 15.233V19.7409H26.5663Z" fill="var(--fill-0, #00295D)"/>
<path d="M43.5183 18.2915C43.5183 18.6948 43.4059 19.0105 43.1811 19.2388C42.9636 19.467 42.5975 19.6306 42.0828 19.7295C41.5752 19.8208 40.8829 19.8665 40.0056 19.8665C39.5054 19.8665 39.0268 19.8512 38.5701 19.8208C38.1133 19.7904 37.6747 19.7447 37.2542 19.6839C36.8409 19.623 36.4494 19.5583 36.0797 19.4898L36.2319 18.8051C36.6379 18.8736 37.044 18.9344 37.45 18.9877C37.856 19.041 38.2692 19.0828 38.6897 19.1132C39.1102 19.1437 39.538 19.1589 39.973 19.1589C40.6617 19.1589 41.1982 19.1399 41.5825 19.1018C41.974 19.0562 42.2459 18.9687 42.3981 18.8393C42.5576 18.71 42.6374 18.5236 42.6374 18.2801C42.6374 18.029 42.5649 17.8426 42.4199 17.7209C42.2821 17.5992 42.061 17.5079 41.7565 17.447C41.4592 17.3861 41.0677 17.3367 40.582 17.2986L38.1895 17.1389C37.7255 17.1084 37.3267 17.0476 36.9932 16.9563C36.6597 16.8573 36.4023 16.6976 36.2211 16.4769C36.0471 16.2487 35.9601 15.9367 35.9601 15.5411C35.9601 15.0922 36.1014 14.7536 36.3842 14.5254C36.6669 14.2971 37.0875 14.1411 37.6457 14.0575C38.2112 13.9738 38.9145 13.9319 39.7555 13.9319C39.973 13.9319 40.2195 13.9395 40.495 13.9547C40.7777 13.9623 41.0677 13.9814 41.365 14.0118C41.6695 14.0346 41.9704 14.0651 42.2676 14.1031C42.5649 14.1335 42.8404 14.1716 43.0941 14.2172L42.9528 14.902C42.5468 14.8411 42.1516 14.7917 41.7674 14.7536C41.3904 14.708 41.0206 14.6775 40.6581 14.6623C40.3029 14.6395 39.9404 14.6281 39.5706 14.6281C38.9036 14.6281 38.3671 14.6547 37.9611 14.708C37.5623 14.7536 37.276 14.8411 37.102 14.9705C36.9279 15.0922 36.8409 15.2786 36.8409 15.5297C36.8409 15.7655 36.9026 15.9443 37.0258 16.0661C37.1491 16.1802 37.3195 16.2601 37.537 16.3057C37.7545 16.3438 38.0046 16.3742 38.2873 16.397L40.8321 16.5796C41.4339 16.6253 41.9341 16.7052 42.3329 16.8193C42.7316 16.9258 43.0289 17.097 43.2246 17.3329C43.4204 17.5611 43.5183 17.8807 43.5183 18.2915Z" fill="var(--fill-0, #00295D)"/>
<path d="M44.7217 16.8992C44.7217 15.8644 45.0915 15.1112 45.831 14.6395C46.5705 14.1678 47.7233 13.9319 49.2893 13.9319C50.8553 13.9319 52.0081 14.1678 52.7476 14.6395C53.4871 15.1112 53.8568 15.8644 53.8568 16.8992C53.8568 17.9263 53.4871 18.6796 52.7476 19.1589C52.0081 19.6306 50.8553 19.8665 49.2893 19.8665C47.7233 19.8665 46.5705 19.6306 45.831 19.1589C45.0915 18.6796 44.7217 17.9263 44.7217 16.8992ZM45.657 16.8992C45.657 17.4013 45.773 17.8122 46.005 18.1317C46.2443 18.4437 46.6285 18.6719 47.1578 18.8165C47.6943 18.9535 48.4048 19.0219 49.2893 19.0219C50.1738 19.0219 50.8807 18.9535 51.4099 18.8165C51.9464 18.6719 52.3307 18.4437 52.5627 18.1317C52.802 17.8122 52.9216 17.4013 52.9216 16.8992C52.9216 16.397 52.802 15.99 52.5627 15.678C52.3307 15.3661 51.9464 15.1378 51.4099 14.9933C50.8807 14.8411 50.1738 14.765 49.2893 14.765C48.4048 14.765 47.6943 14.8411 47.1578 14.9933C46.6285 15.1378 46.2443 15.3661 46.005 15.678C45.773 15.99 45.657 16.397 45.657 16.8992Z" fill="var(--fill-0, #00295D)"/>
<path d="M55.3152 19.7409V14.0575H56.12L56.2505 15.6552V19.7409H55.3152ZM60.3721 13.9319V14.8221C59.9734 14.8221 59.5819 14.8487 59.1976 14.902C58.8134 14.9552 58.4255 15.0465 58.034 15.1759C57.6425 15.2976 57.2401 15.4612 56.8268 15.6666C56.4136 15.8644 55.9786 16.1117 55.5218 16.4084V15.7922C55.8191 15.5563 56.1417 15.3319 56.4897 15.1188C56.845 14.8982 57.2256 14.7004 57.6316 14.5254C58.0376 14.3428 58.469 14.1982 58.9257 14.0917C59.3825 13.9852 59.8646 13.9319 60.3721 13.9319Z" fill="var(--fill-0, #00295D)"/>
<path d="M67.0791 14.8792H61.2065V14.0575H67.0791V14.8792ZM62.3702 19.7409V13.8292C62.3702 13.2281 62.4898 12.7222 62.7291 12.3113C62.9683 11.8929 63.3417 11.5809 63.8492 11.3755C64.3567 11.1625 65.0056 11.0559 65.7958 11.0559C66.2091 11.0559 66.5933 11.0636 66.9486 11.0788C67.3038 11.094 67.6374 11.113 67.9491 11.1358C68.2681 11.1587 68.5726 11.1891 68.8626 11.2271L68.6886 11.9918C68.2754 11.9537 67.8404 11.9195 67.3836 11.8891C66.9268 11.8586 66.4048 11.8434 65.8176 11.8434C65.1941 11.8434 64.6974 11.9157 64.3277 12.0603C63.9652 12.2048 63.7006 12.4217 63.5338 12.7108C63.3743 12.9999 63.2946 13.3575 63.2946 13.7836V19.7409H62.3702ZM69.3085 11.1815V19.7409H68.3841V11.1815H69.3085Z" fill="var(--fill-0, #00295D)"/>
<path d="M70.7625 16.8992C70.7625 15.8644 71.1323 15.1112 71.8718 14.6395C72.6113 14.1678 73.7641 13.9319 75.3301 13.9319C76.8961 13.9319 78.0489 14.1678 78.7884 14.6395C79.5279 15.1112 79.8976 15.8644 79.8976 16.8992C79.8976 17.9263 79.5279 18.6796 78.7884 19.1589C78.0489 19.6306 76.8961 19.8665 75.3301 19.8665C73.7641 19.8665 72.6113 19.6306 71.8718 19.1589C71.1323 18.6796 70.7625 17.9263 70.7625 16.8992ZM71.6978 16.8992C71.6978 17.4013 71.8138 17.8122 72.0458 18.1317C72.285 18.4437 72.6693 18.6719 73.1985 18.8165C73.7351 18.9535 74.4456 19.0219 75.3301 19.0219C76.2146 19.0219 76.9215 18.9535 77.4507 18.8165C77.9872 18.6719 78.3715 18.4437 78.6035 18.1317C78.8427 17.8122 78.9624 17.4013 78.9624 16.8992C78.9624 16.397 78.8427 15.99 78.6035 15.678C78.3715 15.3661 77.9872 15.1378 77.4507 14.9933C76.9215 14.8411 76.2146 14.765 75.3301 14.765C74.4456 14.765 73.7351 14.8411 73.1985 14.9933C72.6693 15.1378 72.285 15.3661 72.0458 15.678C71.8138 15.99 71.6978 16.397 71.6978 16.8992Z" fill="var(--fill-0, #00295D)"/>
<path d="M83.8535 19.4442L83.6686 19.7409H83.0379L80.2974 14.0575H81.287L83.8535 19.4442ZM86.5397 14.0575H87.4206L87.3988 14.2515L84.0384 19.7409H83.4403L83.2771 19.4442L86.5397 14.0575ZM90.1828 19.7409L86.8659 14.3199L86.8551 14.0575H87.7142L90.9876 19.41L90.8245 19.7409H90.1828ZM90.4112 19.467L93.0104 14.0575H94L91.1942 19.7409H90.5635L90.4112 19.467Z" fill="var(--fill-0, #00295D)"/>
</g>
</svg>
