<svg preserveAspectRatio="none" width="100%" height="100%" overflow="visible" style="display: block;" viewBox="0 0 683.713 583.434" fill="none" xmlns="http://www.w3.org/2000/svg">
<path id="Vector 9" d="M678.044 3.50001L675.503 8.56837L600.458 158.275C595.625 167.916 585.764 174.004 574.979 174.004H260.79L144.696 484.132L256.284 401.73L257.211 401.046H597.831L593.114 406.771L459.01 569.556C453.597 576.127 445.528 579.935 437.013 579.935H192.213C181.204 579.934 171.18 573.594 166.463 563.648L134.535 496.34L16.2907 418.204C5.39875 411.007 0.789473 397.328 5.10419 385.007L74.7673 186.084C78.7696 174.656 89.5567 167.004 101.666 167.004H256.417L349.605 16.9629C354.805 8.59136 363.96 3.50006 373.815 3.50001H678.044Z" fill="var(--fill-0, white)" stroke="var(--stroke-0, #00295D)" stroke-width="7"/>
</svg>
