<svg preserveAspectRatio="none" width="100%" height="100%" overflow="visible" style="display: block;" viewBox="0 0 50.229 38.0001" fill="none" xmlns="http://www.w3.org/2000/svg">
<g id="Vector_2">
<path id="Vector" d="M50.203 18.0001C50.2376 18.6663 50.2376 19.3338 50.203 20.0001H39.026C39.068 19.6731 39.088 19.3391 39.088 19.0001H23.088C23.0879 19.3344 23.1086 19.6683 23.15 20.0001H12.255C12.245 19.8341 12.239 19.6681 12.235 19.5001H4.286L4.28 19.2501H0V18.7501H4.281L4.285 18.5001H12.235C12.239 18.3331 12.246 18.1661 12.254 18.0001H50.203Z" fill="var(--fill-0, #2F2352)" fill-opacity="0.6"/>
<path id="Vector_3" d="M38.837 17.0001H50.124C50.054 16.3221 49.947 15.6551 49.807 15.0001H12.651C12.615 15.1661 12.581 15.3331 12.551 15.5001H4.601L4.555 15.7561H0V16.2561H4.476L4.442 16.5001H12.392C12.37 16.6661 12.35 16.8331 12.332 17.0001H23.342C23.43 16.6571 23.541 16.3241 23.672 16.0001H38.507C38.639 16.3257 38.7492 16.6598 38.837 17.0001Z" fill="var(--fill-0, #2F2352)" fill-opacity="0.6"/>
<path id="Vector_4" d="M37.334 14.0001H49.564C49.378 13.3181 49.155 12.6491 48.897 11.9991H13.56C13.494 12.1651 13.43 12.3311 13.37 12.4991H5.42L5.342 12.7181H0V13.2191H5.175L5.087 13.5001H13.037C12.987 13.6661 12.939 13.8331 12.894 14.0001H24.844C25.132 13.6401 25.452 13.3061 25.797 13.0001H36.381C36.7267 13.3055 37.0456 13.64 37.334 14.0001Z" fill="var(--fill-0, #2F2352)" fill-opacity="0.6"/>
<path id="Vector_5" d="M13.99 11.0001H48.467C48.147 10.3101 47.785 9.64202 47.387 9.00002H15.07C14.968 9.16502 14.868 9.33202 14.771 9.50002H6.821L6.694 9.72406H0V10.2241H6.423L6.282 10.5001H14.231C14.148 10.6661 14.068 10.8321 13.99 11.0001Z" fill="var(--fill-0, #2F2352)" fill-opacity="0.6"/>
<path id="Vector_6" d="M50.125 21.0001H12.332C12.3498 21.167 12.3698 21.3337 12.392 21.5001H4.442C4.45252 21.5788 4.46352 21.6575 4.475 21.7361H0V22.2361H4.554C4.56905 22.3242 4.58471 22.4122 4.601 22.5001H12.55C12.5811 22.6672 12.6144 22.8339 12.65 23.0001H24.158C23.973 22.6801 23.81 22.3461 23.67 22.0001H38.508C38.368 22.3461 38.204 22.6801 38.019 23.0001H49.807C49.947 22.3461 50.054 21.6781 50.125 21.0001Z" fill="var(--fill-0, #2F2352)" fill-opacity="0.6"/>
<path id="Vector_7" d="M49.563 24.0001H12.893C12.939 24.1681 12.987 24.3341 13.037 24.5001H5.088C5.11406 24.5866 5.14072 24.6729 5.168 24.7591H0V25.2591H5.334L5.42 25.5001H13.37C13.431 25.6676 13.4944 25.8343 13.56 26.0001H27.213C26.7063 25.7188 26.2315 25.3835 25.797 25.0001H36.381C35.9465 25.3835 35.4717 25.7188 34.965 26.0001H48.897C49.155 25.3501 49.378 24.6831 49.563 24.0001Z" fill="var(--fill-0, #2F2352)" fill-opacity="0.6"/>
<path id="Vector_8" d="M48.467 27.0001H13.99V27.0011C14.0682 27.1689 14.1489 27.3356 14.232 27.5011H6.282L6.405 27.7411H0V28.2411H6.674C6.722 28.3281 6.771 28.4141 6.821 28.5001H14.77C14.8674 28.6683 14.9674 28.8349 15.07 29.0001H47.387C47.7867 28.3556 48.1473 27.6877 48.467 27.0001Z" fill="var(--fill-0, #2F2352)" fill-opacity="0.6"/>
<path id="Vector_9" d="M17.372 32.0001C17.218 31.8361 17.067 31.6701 16.92 31.5001H8.97C8.899 31.4191 8.829 31.3381 8.76 31.2551H0V30.7551H8.351L8.153 30.5001H16.103C15.977 30.3361 15.855 30.1691 15.735 30.0001H46.722C46.2221 30.7029 45.6752 31.3711 45.085 32.0001H17.372Z" fill="var(--fill-0, #2F2352)" fill-opacity="0.6"/>
<path id="Vector_10" d="M20.977 35.0001C20.727 34.8401 20.48 34.6731 20.237 34.5001H12.288C12.182 34.4251 12.076 34.3481 11.972 34.2701H0V33.7701H11.327C11.217 33.6821 11.108 33.5921 11 33.5001H18.95C18.758 33.3371 18.569 33.1701 18.384 33.0001H44.074C43.2683 33.7398 42.4004 34.409 41.48 35.0001H20.977Z" fill="var(--fill-0, #2F2352)" fill-opacity="0.6"/>
<path id="Vector_11" d="M31.228 38.0001C29.865 38.0001 28.536 37.8571 27.254 37.5841C25.972 37.8571 24.642 38.0001 23.279 38.0001C21.347 38.0001 19.482 37.7121 17.725 37.1761H0V36.6761H16.295C16.152 36.6191 16.009 36.5601 15.867 36.5001H23.817C23.45 36.3451 23.089 36.1781 22.733 36.0001H39.723C37.167 37.2801 34.282 38.0001 31.228 38.0001Z" fill="var(--fill-0, #2F2352)" fill-opacity="0.6"/>
<path id="Vector_12" d="M46.722 8.00002H15.735C15.855 7.83202 15.977 7.66502 16.103 7.50002H8.154C8.229 7.40102 8.305 7.30302 8.382 7.20602H0V6.70602H8.794L8.97 6.50002H16.919C17.067 6.33002 17.218 6.16402 17.372 6.00002H45.085C45.6752 6.62894 46.2221 7.29714 46.722 8.00002Z" fill="var(--fill-0, #2F2352)" fill-opacity="0.6"/>
<path id="Vector_13" d="M44.073 5.00002H18.383C18.569 4.83002 18.758 4.66302 18.95 4.50002H11.001C11.105 4.41202 11.21 4.32502 11.316 4.23902H0V3.73902H11.96C12.068 3.65804 12.1779 3.57906 12.2879 3.50008L20.237 3.50002C20.48 3.32802 20.727 3.16102 20.977 3.00002H41.48C42.4001 3.59114 43.2676 4.26027 44.073 5.00002Z" fill="var(--fill-0, #2F2352)" fill-opacity="0.6"/>
<path id="Vector_14" d="M39.724 2.00002H22.734C23.0896 1.82199 23.4508 1.65524 23.817 1.50002H0V1.00002H17.179C19.094 0.352021 21.145 2.15471e-05 23.279 2.15471e-05C24.6149 -0.000545453 25.9473 0.139222 27.254 0.417022C28.536 0.144022 29.865 2.15471e-05 31.229 2.15471e-05C34.1778 -0.00442845 37.0869 0.680456 39.724 2.00002Z" fill="var(--fill-0, #2F2352)" fill-opacity="0.6"/>
</g>
</svg>
