<svg preserveAspectRatio="none" width="100%" height="100%" overflow="visible" style="display: block;" viewBox="0 0 46.455 40" fill="none" xmlns="http://www.w3.org/2000/svg">
<g id="logomark">
<path id="Vector" d="M19.9994 40C31.0454 40 39.9994 31.046 39.9994 20V6C39.9994 4.4087 39.3673 2.88258 38.2421 1.75736C37.1169 0.632141 35.5907 0 33.9994 0H20.9994V8.774C20.9994 10.776 21.1214 12.85 22.1714 14.554C22.9231 15.7752 23.9287 16.8204 25.1199 17.6188C26.3112 18.4171 27.6602 18.9499 29.0754 19.181L29.4584 19.243C29.6163 19.297 29.7534 19.399 29.8505 19.5347C29.9475 19.6704 29.9997 19.8331 29.9997 20C29.9997 20.1669 29.9475 20.3296 29.8505 20.4653C29.7534 20.601 29.6163 20.703 29.4584 20.757L29.0754 20.819C27.0076 21.1568 25.0981 22.1356 23.6166 23.6171C22.135 25.0987 21.1562 27.0082 20.8184 29.076L20.7564 29.459C20.7025 29.6169 20.6005 29.754 20.4647 29.851C20.329 29.9481 20.1663 30.0003 19.9994 30.0003C19.8326 30.0003 19.6699 29.9481 19.5341 29.851C19.3984 29.754 19.2964 29.6169 19.2424 29.459L19.1804 29.076C18.9493 27.6607 18.4165 26.3118 17.6182 25.1205C16.8198 23.9293 15.7746 22.9237 14.5534 22.172C12.8494 21.122 10.7754 21 8.77344 21H0.0234375C0.546438 31.581 9.28944 40 19.9994 40Z" fill="var(--fill-0, #0E1534)" fill-opacity="0.6"/>
<path id="Vector_2" d="M8.774 19H0V6C0 4.4087 0.632141 2.88258 1.75736 1.75736C2.88258 0.632141 4.4087 0 6 0H19V8.774C19 10.776 18.878 12.85 17.828 14.554C17.0073 15.886 15.886 17.0073 14.554 17.828C12.85 18.878 10.776 19 8.774 19Z" fill="var(--fill-0, #0E1534)" fill-opacity="0.6"/>
<path id="Vector_3" d="M45.8692 3.41421C46.2443 3.03914 46.455 2.53043 46.455 2C46.455 1.46957 46.2443 0.960859 45.8692 0.585786C45.4941 0.210714 44.9854 0 44.455 0C43.9246 0 43.4159 0.210714 43.0408 0.585786C42.6657 0.960859 42.455 1.46957 42.455 2C42.455 2.53043 42.6657 3.03914 43.0408 3.41421C43.4159 3.78929 43.9246 4 44.455 4C44.9854 4 45.4941 3.78929 45.8692 3.41421Z" fill="var(--fill-0, #0E1534)" fill-opacity="0.6"/>
</g>
</svg>
