<svg preserveAspectRatio="none" width="100%" height="100%" overflow="visible" style="display: block;" viewBox="0 0 167 33" fill="none" xmlns="http://www.w3.org/2000/svg">
<g id="logotype">
<path id="Vector" d="M158.711 8.104C164.302 8.104 167 12.009 167 16.532V25.027H161.149V17.54C161.149 15.49 160.401 13.798 158.256 13.798C156.111 13.798 155.396 15.49 155.396 17.54V25.026H149.545V17.54C149.545 15.49 148.83 13.798 146.684 13.798C144.539 13.798 143.791 15.49 143.791 17.54V25.026H137.941V16.531C137.941 12.008 140.638 8.103 146.229 8.103C149.285 8.103 151.495 9.307 152.503 11.292C153.575 9.307 155.916 8.102 158.711 8.102V8.104ZM127.427 19.82C129.312 19.82 130.125 18.095 130.125 16.044V8.754H135.975V16.76C135.975 21.544 133.18 25.515 127.427 25.515C121.673 25.515 118.878 21.545 118.878 16.76V8.754H124.729V16.044C124.729 18.094 125.541 19.82 127.427 19.82ZM110.275 25.547C106.602 25.547 104.229 24.278 102.831 21.805L107.057 19.429C107.642 20.47 108.519 20.991 109.982 20.991C111.185 20.991 111.737 20.568 111.737 20.047C111.737 18.062 103.156 20.08 103.156 13.767C103.156 10.707 105.756 8.234 110.177 8.234C114.045 8.234 116.158 10.121 117.101 11.944L112.875 14.352C112.518 13.376 111.412 12.79 110.307 12.79C109.462 12.79 109.007 13.148 109.007 13.636C109.007 15.654 117.588 13.799 117.588 19.917C117.588 23.334 114.24 25.547 110.275 25.547ZM89.833 32.512H83.982V16.858C83.982 11.878 87.72 8.266 92.921 8.266C97.992 8.266 101.86 12.139 101.86 16.858C101.86 22.065 98.414 25.515 93.246 25.515C92.043 25.515 90.841 25.157 89.833 24.603V32.512ZM92.921 20.015C94.774 20.015 96.009 18.583 96.009 16.89C96.009 15.166 94.774 13.766 92.921 13.766C91.068 13.766 89.833 15.166 89.833 16.891C89.833 18.583 91.068 20.015 92.921 20.015ZM78.121 7.03C76.203 7.03 74.611 5.435 74.611 3.515C74.611 1.595 76.203 0 78.121 0C80.039 0 81.632 1.595 81.632 3.515C81.632 5.435 80.039 7.03 78.121 7.03ZM75.196 8.754H81.047V25.027H75.196V8.754ZM63.97 25.515C58.899 25.515 55.031 21.61 55.031 16.858C55.031 12.139 58.899 8.234 63.97 8.234C69.041 8.234 72.909 12.139 72.909 16.858C72.909 21.61 69.041 25.515 63.97 25.515ZM63.97 20.015C65.823 20.015 67.058 18.583 67.058 16.89C67.058 15.166 65.823 13.734 63.97 13.734C62.117 13.734 60.882 15.166 60.882 16.89C60.882 18.583 62.117 20.015 63.97 20.015ZM43.983 33C39.953 33 37.027 31.21 35.532 28.02L40.375 25.417C40.895 26.524 41.87 27.663 43.885 27.663C45.999 27.663 47.396 26.328 47.559 23.985C46.779 24.669 45.543 25.189 43.691 25.189C39.172 25.189 35.531 21.707 35.531 16.825C35.531 12.107 39.4 8.266 44.471 8.266C49.672 8.266 53.41 11.879 53.41 16.858V23.302C53.41 29.16 49.346 33 43.983 33ZM44.373 19.69C46.128 19.69 47.461 18.485 47.461 16.695C47.461 14.938 46.129 13.766 44.373 13.766C42.65 13.766 41.285 14.938 41.285 16.696C41.285 18.486 42.65 19.689 44.373 19.689V19.69ZM25.607 25.515C20.536 25.515 16.667 21.61 16.667 16.858C16.667 12.139 20.536 8.234 25.607 8.234C30.677 8.234 34.546 12.139 34.546 16.858C34.546 21.61 30.678 25.515 25.607 25.515ZM25.607 20.015C27.46 20.015 28.695 18.583 28.695 16.89C28.695 15.166 27.46 13.734 25.607 13.734C23.754 13.734 22.519 15.166 22.519 16.89C22.519 18.583 23.754 20.015 25.607 20.015ZM6.013 3.06V19.494H15.7V25.027H5.2C1.495 25.027 0 23.074 0 19.982V3.06H6.013Z" fill="var(--fill-0, #0E1534)" fill-opacity="0.6"/>
</g>
</svg>
