<svg preserveAspectRatio="none" width="100%" height="100%" overflow="visible" style="display: block;" viewBox="0 0 39.9999 40" fill="none" xmlns="http://www.w3.org/2000/svg">
<g id="logomark">
<path id="Vector" fill-rule="evenodd" clip-rule="evenodd" d="M19.9999 40C31.0457 40 39.9999 31.0457 39.9999 20C39.9999 8.9543 31.0457 0 19.9999 0C8.95429 0 0 8.9543 0 20C0 31.0457 8.95429 40 19.9999 40ZM23.0869 15.4526C24.7917 13.7477 24.7917 10.9836 23.0869 9.27866C21.382 7.57378 18.6179 7.57378 16.913 9.27866C15.2082 10.9836 15.2082 13.7477 16.913 15.4526L19.9999 18.5395L23.0869 15.4526ZM24.5474 23.087C26.2523 24.7919 29.0164 24.7919 30.7213 23.087C32.4261 21.3821 32.4261 18.618 30.7213 16.9131C29.0164 15.2083 26.2523 15.2083 24.5474 16.9131L21.4605 20.0001L24.5474 23.087ZM23.0869 30.7214C24.7917 29.0165 24.7917 26.2524 23.0869 24.5475L19.9999 21.4606L16.913 24.5475C15.2082 26.2524 15.2082 29.0165 16.913 30.7214C18.6179 32.4263 21.382 32.4263 23.0869 30.7214ZM9.27863 23.087C7.57379 21.3821 7.57379 18.618 9.27863 16.9131C10.9835 15.2083 13.7476 15.2083 15.4525 16.9131L18.5394 20.0001L15.4525 23.087C13.7476 24.7919 10.9835 24.7919 9.27863 23.087Z" fill="var(--fill-0, #7F57F1)" fill-opacity="0.6"/>
</g>
</svg>
